# xmcd CD database file generated by OrangeCD 5.2
#
# Track frame offsets:
#	150
#	12142
#	23382
#	36950
#	49032
#	60212
#	72055
#	82717
#	93510
#	106115
#
# Disc length: 1579 seconds
#
# Revision: 2
# Processed by: cddbd v1.5.1PL0 Copyright (c) Steve Scherf et al.
# Submitted via: OrangeCD 5.2
#
DISCID=6006290a
DTITLE=Stonewall Jackson - Stonewall Jackson - American Originals
DYEAR=1900
DGENRE=Country
TTITLE0=Smoke Along the Track
TTITLE1=Life to Go
TTITLE2=Don't Be Angry
TTITLE3=A Wound Time Can't Erase
TTITLE4=Waterloo
TTITLE5=Me and You and a Dog Named Boo
TTITLE6=Life of a Poor Boy
TTITLE7=Mary Don't You Weep
TTITLE8=Leona
TTITLE9=Blues Plus Booze(Means I Lose)
EXTD=
EXTT0=
EXTT1=
EXTT2=
EXTT3=
EXTT4=
EXTT5=
EXTT6=
EXTT7=
EXTT8=
EXTT9=
PLAYORDER=
